<?xml version="1.0" standalone="no"?>
<!DOCTYPE svg PUBLIC "-//W3C//DTD SVG 20010904//EN"
 "http://www.w3.org/TR/2001/REC-SVG-20010904/DTD/svg10.dtd">
<svg version="1.0" xmlns="http://www.w3.org/2000/svg"
 width="512.000000pt" height="512.000000pt" viewBox="0 0 512.000000 512.000000"
 preserveAspectRatio="xMidYMid meet">

<g transform="translate(0.000000,512.000000) scale(0.100000,-0.100000)"
fill="#000000" stroke="none">
<path d="M0 3945 l0 -135 415 0 415 0 0 -1385 0 -1385 135 0 135 0 0 1385 0
1385 415 0 415 0 0 135 0 135 -965 0 -965 0 0 -135z"/>
<path d="M2924 4069 c-137 -23 -265 -91 -369 -194 -111 -112 -175 -241 -195
-397 -5 -42 -10 -572 -10 -1255 l0 -1183 135 0 135 0 0 1173 c0 652 4 1200 10
1235 25 179 160 318 339 352 30 5 184 10 342 10 l289 0 0 -1385 0 -1385 135 0
135 0 0 1386 0 1386 328 -4 c304 -3 331 -5 379 -25 112 -45 201 -133 245 -241
l23 -57 3 -1222 2 -1223 135 0 135 0 0 1203 c0 792 -4 1224 -11 1267 -33 203
-178 399 -363 491 -157 77 -99 73 -981 75 -434 1 -813 -2 -841 -7z"/>
</g>
</svg>
